<svg width="415" height="415" viewBox="0 0 415 415" fill="none" xmlns="http://www.w3.org/2000/svg">
<path fill-rule="evenodd" clip-rule="evenodd" d="M-0.1474 5.90661V100.306C-0.1474 107.713 10.7327 107.799 10.7327 100.626V11.0267H100.333C107.353 11.0267 107.621 0.146606 100.013 0.146606H5.6126C2.40718 0.146606 -0.1474 2.70119 -0.1474 5.90661Z" fill="url(#paint0_linear_57_11)"/>
<path fill-rule="evenodd" clip-rule="evenodd" d="M-0.1474 408.813V314.413C-0.1474 307.006 10.7327 306.92 10.7327 314.093V403.693H100.333C107.353 403.693 107.621 414.573 100.013 414.573H5.6126C2.40718 414.573 -0.1474 412.018 -0.1474 408.813Z" fill="url(#paint1_linear_57_11)"/>
<path fill-rule="evenodd" clip-rule="evenodd" d="M414.279 5.90661V100.306C414.279 107.713 403.398 107.799 403.398 100.626V11.0267H313.798C306.778 11.0267 306.511 0.146606 314.118 0.146606H408.519C411.724 0.146606 414.279 2.70119 414.279 5.90661Z" fill="url(#paint2_linear_57_11)"/>
<path fill-rule="evenodd" clip-rule="evenodd" d="M414.279 408.813V314.413C414.279 307.006 403.398 306.92 403.398 314.093V403.693H313.798C306.778 403.693 306.511 414.573 314.118 414.573H408.519C411.724 414.573 414.279 412.018 414.279 408.813Z" fill="url(#paint3_linear_57_11)"/>
<defs>
<linearGradient id="paint0_linear_57_11" x1="-0.1474" y1="53.0407" x2="105.659" y2="53.0407" gradientUnits="userSpaceOnUse">
<stop stop-color="#2ED180"/>
<stop offset="1" stop-color="#0C86D9"/>
</linearGradient>
<linearGradient id="paint1_linear_57_11" x1="-0.1474" y1="361.679" x2="105.659" y2="361.679" gradientUnits="userSpaceOnUse">
<stop stop-color="#2ED180"/>
<stop offset="1" stop-color="#0C86D9"/>
</linearGradient>
<linearGradient id="paint2_linear_57_11" x1="414.279" y1="53.0407" x2="308.473" y2="53.0407" gradientUnits="userSpaceOnUse">
<stop stop-color="#2ED180"/>
<stop offset="1" stop-color="#0C86D9"/>
</linearGradient>
<linearGradient id="paint3_linear_57_11" x1="414.279" y1="361.679" x2="308.473" y2="361.679" gradientUnits="userSpaceOnUse">
<stop stop-color="#2ED180"/>
<stop offset="1" stop-color="#0C86D9"/>
</linearGradient>
</defs>
</svg>
